<svg width="200" height="200" viewBox="0 0 200 200" fill="none" xmlns="http://www.w3.org/2000/svg">
<g clip-path="url(#clip0_94_10)">
<g filter="url(#filter0_d_94_10)">
<mask id="path-1-inside-1_94_10" fill="white">
<path d="M142.766 78.6866L144.941 96.5296L149.143 112.913L151.768 137.296L150.123 155.504L131.161 175.246L104.609 184.804L90.0445 178.311L88.2316 176.234L75.2617 175.12L57.8288 159.041L54.2858 145.702L49.0869 137.111L48.9462 130.993L51.3326 119.637L59.0837 98.5049L67.9676 75.4634L73.5262 61.3271L79.0847 47.1909L103.363 15.5549L118.824 35.4466L132.559 57.026L142.766 78.6866Z"/>
</mask>
<path d="M142.766 78.6866L144.941 96.5296L149.143 112.913L151.768 137.296L150.123 155.504L131.161 175.246L104.609 184.804L90.0445 178.311L88.2316 176.234L75.2617 175.12L57.8288 159.041L54.2858 145.702L49.0869 137.111L48.9462 130.993L51.3326 119.637L59.0837 98.5049L67.9676 75.4634L73.5262 61.3271L79.0847 47.1909L103.363 15.5549L118.824 35.4466L132.559 57.026L142.766 78.6866Z" fill="white"/>
<path d="M103.363 15.5549L104.082 15.3927L103.547 13.0215L102.675 15.2904L103.363 15.5549ZM132.559 57.026L133.241 57.3058L133.491 56.6966L132.914 56.3798L132.559 57.026ZM149.143 112.913L149.646 113.452L150.304 112.837L149.571 112.313L149.143 112.913ZM151.768 137.296L152.313 137.791L152.922 137.121L152.142 136.661L151.768 137.296ZM150.123 155.504L150.207 156.237L152.763 155.941L150.439 154.839L150.123 155.504ZM131.161 175.246L130.907 175.938L131.71 176.233L131.882 175.395L131.161 175.246ZM104.609 184.804L104.172 185.397L104.819 185.874L105.238 185.188L104.609 184.804ZM88.2316 176.234L87.5956 176.607L87.7825 176.926L88.1498 176.967L88.2316 176.234ZM75.2617 175.12L74.6208 175.484L75.0731 176.28L75.7542 175.668L75.2617 175.12ZM49.0869 137.111L48.4316 136.773L48.1309 137.357L48.6761 137.723L49.0869 137.111ZM51.3326 119.637L50.9096 119.033L50.4691 119.342L50.6286 119.856L51.3326 119.637ZM59.0837 98.5049L58.5793 97.9674L57.9091 98.5962L58.6684 99.114L59.0837 98.5049ZM101.459 162.981L101.775 162.315L101.761 162.308L101.746 162.302L101.459 162.981ZM66.6768 160.014L66.0129 160.334L66.0237 160.357L66.036 160.378L66.6768 160.014ZM73.4426 96.0557L72.7944 95.7047L72.7574 95.7729L72.7355 95.8474L73.4426 96.0557ZM99.7469 101.336L100.007 102.026L100.011 102.025L99.7469 101.336ZM113.061 91.848L113.489 92.4483L113.559 92.3983L113.616 92.3334L113.061 91.848ZM102.644 15.7171L109.196 44.7603L110.634 44.4359L104.082 15.3927L102.644 15.7171ZM109.56 45.2443L132.205 57.6722L132.914 56.3798L110.27 43.9519L109.56 45.2443ZM131.877 56.7462L126.027 71.0069L127.391 71.5664L133.241 57.3058L131.877 56.7462ZM126.174 71.7937L132.506 78.4756L133.576 77.4616L127.244 70.7796L126.174 71.7937ZM132.987 78.7037L142.712 79.4217L142.82 77.9515L133.095 77.2335L132.987 78.7037ZM118.296 34.9324L109.387 44.0839L110.443 45.1123L119.352 35.9608L118.296 34.9324ZM132.835 77.2609L122.314 80.3282L122.727 81.7435L133.247 78.6763L132.835 77.2609ZM121.787 80.9631L120.593 92.9977L122.06 93.1433L123.254 81.1086L121.787 80.9631ZM120.899 93.6706L148.715 113.513L149.571 112.313L121.755 92.4704L120.899 93.6706ZM148.639 112.375L133.664 126.375L134.671 127.452L149.646 113.452L148.639 112.375ZM133.793 127.548L151.393 137.931L152.142 136.661L134.542 126.278L133.793 127.548ZM133.459 126.707L127.734 146.38L129.15 146.792L134.875 127.119L133.459 126.707ZM128.715 147.271L152.04 137.981L151.495 136.611L128.169 145.901L128.715 147.271ZM151.222 136.8L139.167 150.069L140.258 151.06L152.313 137.791L151.222 136.8ZM139.396 151.23L149.807 156.17L150.439 154.839L140.029 149.898L139.396 151.23ZM139.115 150.133L134.268 156.836L135.463 157.7L140.31 150.996L139.115 150.133ZM134.95 158L150.207 156.237L150.038 154.772L134.781 156.536L134.95 158ZM134.144 157.119L130.439 175.098L131.882 175.395L135.587 157.417L134.144 157.119ZM131.891 175.145L129.421 157.309L127.961 157.511L130.43 175.347L131.891 175.145ZM128.708 158.147L134.882 158.005L134.849 156.531L128.674 156.673L128.708 158.147ZM139.324 149.938L128.302 156.784L129.08 158.036L140.101 151.191L139.324 149.938ZM127.705 146.603L127.954 157.427L129.428 157.393L129.179 146.569L127.705 146.603ZM128.196 147.281L139.467 151.26L139.958 149.869L128.687 145.891L128.196 147.281ZM128.186 145.895L101.057 155.936L101.569 157.319L128.698 147.277L128.186 145.895ZM100.576 156.644L100.636 159.233L102.11 159.199L102.05 156.61L100.576 156.644ZM101.421 159.951L128.739 158.146L128.642 156.675L101.324 158.48L101.421 159.951ZM128.228 156.836L113.787 168.469L114.711 169.617L129.153 157.984L128.228 156.836ZM113.995 169.735L130.907 175.938L131.414 174.554L114.503 168.351L113.995 169.735ZM113.62 168.659L103.98 184.419L105.238 185.188L114.878 169.428L113.62 168.659ZM113.985 168.355L93.572 176.171L94.0992 177.548L114.513 169.732L113.985 168.355ZM93.572 176.171L89.781 177.623L90.3081 179L94.0992 177.548L93.572 176.171ZM88.1498 176.967L93.7538 177.592L93.9174 176.127L88.3134 175.501L88.1498 176.967ZM93.3981 177.453L104.172 185.397L105.047 184.21L94.2731 176.266L93.3981 177.453ZM94.4817 177.215L102.105 163.336L100.813 162.626L93.1895 176.505L94.4817 177.215ZM101.144 163.647L113.933 169.709L114.565 168.377L101.775 162.315L101.144 163.647ZM101.943 157.011L128.308 113.791L127.049 113.023L100.684 156.244L101.943 157.011ZM101.808 157.174L134.662 127.46L133.673 126.366L100.819 156.081L101.808 157.174ZM127.695 114.144L149.16 113.65L149.126 112.176L127.661 112.67L127.695 114.144ZM134.832 126.594L128.343 113.088L127.014 113.726L133.503 127.232L134.832 126.594ZM145.048 95.8002L121.434 92.3411L121.22 93.7998L144.835 97.2589L145.048 95.8002ZM120.623 93.2902L126.975 113.627L128.382 113.187L122.03 92.8507L120.623 93.2902ZM54.3027 146.439L61.6536 146.27L61.6197 144.796L54.2688 144.965L54.3027 146.439ZM60.9133 145.675L62.2464 152.472L63.6931 152.188L62.36 145.391L60.9133 145.675ZM62.3846 151.882L57.2436 158.592L58.4139 159.489L63.5549 152.778L62.3846 151.882ZM62.3059 152.65L66.0129 160.334L67.3407 159.694L63.6337 152.01L62.3059 152.65ZM66.036 160.378L74.6208 175.484L75.9025 174.756L67.3177 159.65L66.036 160.378ZM66.6323 160.75L86.3705 161.944L86.4595 160.472L66.7213 159.278L66.6323 160.75ZM85.746 160.899L82.6632 167.562L84.0012 168.181L87.084 161.518L85.746 160.899ZM82.8396 167.323L74.7691 174.571L75.7542 175.668L83.8248 168.42L82.8396 167.323ZM82.6962 168.244L87.5956 176.607L88.8676 175.861L83.9682 167.499L82.6962 168.244ZM86.4319 161.945L96.7231 161.708L96.6892 160.234L86.398 160.471L86.4319 161.945ZM96.4191 161.65L101.172 163.66L101.746 162.302L96.9932 160.292L96.4191 161.65ZM97.4431 160.954L97.3781 158.131L95.9042 158.164L95.9692 160.988L97.4431 160.954ZM96.8692 158.849L101.541 157.328L101.085 155.926L96.4131 157.447L96.8692 158.849ZM101.113 158.526L96.4466 160.281L96.9657 161.661L101.632 159.906L101.113 158.526ZM83.6702 168.526L97.0441 161.626L96.3682 160.316L82.9942 167.216L83.6702 168.526ZM86.7797 160.567L82.0102 157.852L81.2808 159.133L86.0503 161.849L86.7797 160.567ZM82.3739 158.605L83.6546 150.336L82.1977 150.11L80.917 158.38L82.3739 158.605ZM83.6213 149.978L74.8091 124.989L73.4188 125.479L82.231 150.468L83.6213 149.978ZM74.5289 125.843L121.742 93.6797L120.912 92.4613L73.6989 124.625L74.5289 125.843ZM101.556 155.931L83.1686 149.527L82.6837 150.919L101.071 157.324L101.556 155.931ZM87.1175 160.985L83.6287 150L82.2236 150.446L85.7124 161.431L87.1175 160.985ZM97.01 157.509L83.2949 149.585L82.5574 150.861L96.2724 158.786L97.01 157.509ZM62.2646 145.919L74.7419 125.62L73.4859 124.848L61.0086 145.147L62.2646 145.919ZM51.1567 120.353L73.9381 125.95L74.2898 124.518L51.5085 118.921L51.1567 120.353ZM49.3453 131.612L54.2735 128.438L53.4752 127.199L48.547 130.373L49.3453 131.612ZM54.5783 127.6L52.0365 119.418L50.6286 119.856L53.1704 128.037L54.5783 127.6ZM49.7422 137.448L54.5296 128.156L53.2191 127.481L48.4316 136.773L49.7422 137.448ZM74.0206 124.503L53.781 127.087L53.9677 128.55L74.2073 125.965L74.0206 124.503ZM62.3118 145.237L54.5495 127.523L53.1992 128.115L60.9615 145.829L62.3118 145.237ZM48.6761 137.723L61.2259 146.145L62.0474 144.921L49.4977 136.499L48.6761 137.723ZM74.8509 125.217L74.526 111.099L73.0522 111.132L73.377 125.251L74.8509 125.217ZM73.5276 110.426L51.0711 118.948L51.5941 120.326L74.0506 111.805L73.5276 110.426ZM71.1481 106.457L74.1497 96.2639L72.7355 95.8474L69.7339 106.04L71.1481 106.457ZM74.0908 96.4066L86.2254 73.9966L84.9289 73.2946L72.7944 95.7047L74.0908 96.4066ZM85.7372 74.3652L122.324 66.2249L122.003 64.7858L85.4171 72.9261L85.7372 74.3652ZM122.8 65.1328L110.551 44.2255L109.279 44.9707L121.527 65.878L122.8 65.1328ZM78.7937 47.8681L89.1931 52.3375L89.7752 50.9831L79.3758 46.5136L78.7937 47.8681ZM102.675 15.2904L88.7961 51.3958L90.1722 51.9248L104.051 15.8194L102.675 15.2904ZM88.7584 51.5313L84.8514 73.5166L86.3029 73.7746L90.2099 51.7893L88.7584 51.5313ZM68.0433 76.1966L85.6528 74.3789L85.5015 72.9124L67.8919 74.7301L68.0433 76.1966ZM89.725 52.357L90.8925 51.9534L90.4108 50.5601L89.2433 50.9636L89.725 52.357ZM90.8925 51.9534L110.156 45.2948L109.674 43.9014L90.4108 50.5601L90.8925 51.9534ZM90.3479 51.9284L121.86 66.177L122.467 64.8337L90.9553 50.5851L90.3479 51.9284ZM132.093 56.4548L121.698 64.9342L122.629 66.0766L133.025 57.5972L132.093 56.4548ZM122.934 80.4255L120.245 78.6039L119.418 79.8246L122.107 81.6462L122.934 80.4255ZM120.388 79.6973L127.266 71.7697L126.153 70.8036L119.274 78.7312L120.388 79.6973ZM121.584 65.961L126.13 71.7423L127.289 70.831L122.743 65.0498L121.584 65.961ZM120.558 79.3379L122.89 65.629L121.437 65.3818L119.105 79.0906L120.558 79.3379ZM74.049 111.805L100.007 102.026L99.4871 100.647L73.5292 110.426L74.049 111.805ZM100.293 101.832L120.377 79.7097L119.285 78.7188L99.2012 100.841L100.293 101.832ZM113.616 92.3334L123.076 81.5212L121.966 80.5505L112.507 91.3627L113.616 92.3334ZM100.011 102.025L121.59 93.7589L121.063 92.3821L99.4833 100.648L100.011 102.025ZM100.175 101.937L113.489 92.4483L112.634 91.2477L99.3191 100.736L100.175 101.937ZM69.8337 106.666L73.1818 111.533L74.3964 110.698L71.0484 105.831L69.8337 106.666ZM51.7556 120.241L70.864 106.852L70.0181 105.645L50.9096 119.033L51.7556 120.241ZM58.6684 99.114L70.0258 106.857L70.8563 105.639L59.4989 97.8959L58.6684 99.114ZM59.5881 99.0425L86.0815 74.1832L85.0728 73.1081L58.5793 97.9674L59.5881 99.0425ZM86.1041 73.1301L74.0531 60.8116L72.9992 61.8426L85.0502 74.1611L86.1041 73.1301ZM80.9828 96.9262L74.0397 102.03L74.9129 103.218L81.856 98.1141L80.9828 96.9262ZM73.7416 102.565L73.0544 111.056L74.5238 111.175L75.211 102.683L73.7416 102.565ZM72.7144 96.1702L73.7481 102.739L75.2045 102.509L74.1708 95.9411L72.7144 96.1702ZM81.2692 98.2418L99.5967 102.058L99.8972 100.615L81.5697 96.7985L81.2692 98.2418ZM81.8748 98.0998L122.619 66.085L121.708 64.9258L80.964 96.9406L81.8748 98.0998ZM81.8765 157.793L63.2008 151.63L62.7388 153.03L81.4145 159.193L81.8765 157.793ZM61.4781 146.253L82.7676 150.943L83.0847 149.503L61.7952 144.813L61.4781 146.253ZM103.363 15.5549L104.527 14.6502L103.355 13.1431L102.193 14.6574L103.363 15.5549ZM132.559 57.026L133.893 56.3976L133.853 56.3131L133.803 56.2344L132.559 57.026ZM142.766 78.6866L144.229 78.5082L144.201 78.2727L144.099 78.0582L142.766 78.6866ZM144.941 96.5296L143.478 96.708L143.49 96.803L143.513 96.8958L144.941 96.5296ZM149.143 112.913L150.609 112.756L150.597 112.65L150.571 112.547L149.143 112.913ZM151.768 137.296L153.236 137.428L153.249 137.283L153.233 137.138L151.768 137.296ZM150.123 155.504L151.186 156.526L151.545 156.152L151.591 155.637L150.123 155.504ZM131.161 175.246L131.66 176.634L131.985 176.517L132.224 176.268L131.161 175.246ZM104.609 184.804L104.009 186.15L104.551 186.392L105.109 186.191L104.609 184.804ZM90.0445 178.311L88.9338 179.281L89.1475 179.525L89.4443 179.658L90.0445 178.311ZM88.2316 176.234L89.3423 175.265L88.9509 174.816L88.3578 174.765L88.2316 176.234ZM75.2617 175.12L74.2621 176.204L74.6329 176.546L75.1355 176.589L75.2617 175.12ZM57.8288 159.041L56.4039 159.419L56.514 159.833L56.8292 160.124L57.8288 159.041ZM54.2858 145.702L55.7107 145.324L55.6564 145.12L55.5471 144.939L54.2858 145.702ZM49.0869 137.111L47.613 137.145L47.6221 137.538L47.8256 137.874L49.0869 137.111ZM48.9462 130.993L47.5034 130.69L47.4684 130.856L47.4723 131.027L48.9462 130.993ZM51.3326 119.637L49.9485 119.129L49.9118 119.229L49.8898 119.334L51.3326 119.637ZM59.0837 98.5049L57.7081 97.9746L57.7038 97.9859L57.6996 97.9972L59.0837 98.5049ZM67.9676 75.4634L66.5956 74.9239L66.5921 74.933L67.9676 75.4634ZM79.0847 47.1909L77.9152 46.2933L77.7887 46.4581L77.7127 46.6514L79.0847 47.1909ZM118.824 35.4466L120.068 34.655L120.031 34.5965L119.988 34.5418L118.824 35.4466ZM73.5262 61.3271L74.8982 61.8666L74.8982 61.8666L73.5262 61.3271ZM141.302 78.865L143.478 96.708L146.405 96.3511L144.229 78.5082L141.302 78.865ZM143.513 96.8958L147.715 113.28L150.571 112.547L146.37 96.1634L143.513 96.8958ZM147.677 113.071L150.302 137.453L153.233 137.138L150.609 112.756L147.677 113.071ZM150.299 137.163L148.655 155.372L151.591 155.637L153.236 137.428L150.299 137.163ZM149.06 154.483L130.097 174.225L132.224 176.268L151.186 156.526L149.06 154.483ZM130.661 173.859L104.11 183.417L105.109 186.191L131.66 176.634L130.661 173.859ZM105.209 183.457L90.6448 176.965L89.4443 179.658L104.009 186.15L105.209 183.457ZM91.1553 177.342L89.3423 175.265L87.1209 177.203L88.9338 179.281L91.1553 177.342ZM88.3578 174.765L75.3879 173.651L75.1355 176.589L88.1054 177.703L88.3578 174.765ZM76.2612 174.036L58.8283 157.957L56.8292 160.124L74.2621 176.204L76.2612 174.036ZM59.2536 158.662L55.7107 145.324L52.8609 146.081L56.4039 159.419L59.2536 158.662ZM55.5471 144.939L50.3482 136.348L47.8256 137.874L53.0245 146.465L55.5471 144.939ZM50.5608 137.077L50.42 130.959L47.4723 131.027L47.613 137.145L50.5608 137.077ZM50.3889 131.296L52.7753 119.94L49.8898 119.334L47.5034 130.69L50.3889 131.296ZM52.7167 120.145L60.4678 99.0126L57.6996 97.9972L49.9485 119.129L52.7167 120.145ZM60.4593 99.0353L69.3432 75.9937L66.5921 74.933L57.7081 97.9746L60.4593 99.0353ZM80.2543 48.0884L104.532 16.4525L102.193 14.6574L77.9152 46.2933L80.2543 48.0884ZM102.199 16.4597L117.66 36.3513L119.988 34.5418L104.527 14.6502L102.199 16.4597ZM117.581 36.2382L131.316 57.8176L133.803 56.2344L120.068 34.655L117.581 36.2382ZM131.226 57.6544L141.432 79.315L144.099 78.0582L133.893 56.3976L131.226 57.6544ZM69.3396 76.0029L74.8982 61.8666L72.1542 60.7876L66.5956 74.9239L69.3396 76.0029ZM74.8982 61.8666L80.4567 47.7304L77.7127 46.6514L72.1542 60.7876L74.8982 61.8666Z" fill="black" mask="url(#path-1-inside-1_94_10)"/>
</g>
</g>
<defs>
<filter id="filter0_d_94_10" x="26.095" y="-7.29622" width="148.524" height="214.951" filterUnits="userSpaceOnUse" color-interpolation-filters="sRGB">
<feFlood flood-opacity="0" result="BackgroundImageFix"/>
<feColorMatrix in="SourceAlpha" type="matrix" values="0 0 0 0 0 0 0 0 0 0 0 0 0 0 0 0 0 0 127 0" result="hardAlpha"/>
<feOffset/>
<feGaussianBlur stdDeviation="11.4256"/>
<feComposite in2="hardAlpha" operator="out"/>
<feColorMatrix type="matrix" values="0 0 0 0 0.524355 0 0 0 0 0.179727 0 0 0 0 0.945566 0 0 0 0.5 0"/>
<feBlend mode="normal" in2="BackgroundImageFix" result="effect1_dropShadow_94_10"/>
<feBlend mode="normal" in="SourceGraphic" in2="effect1_dropShadow_94_10" result="shape"/>
</filter>
<clipPath id="clip0_94_10">
<rect width="200" height="200" fill="white"/>
</clipPath>
</defs>
</svg>
